<?xml version="1.0" encoding="UTF-8" standalone="no"?>
<!-- Created with Inkscape (http://www.inkscape.org/) -->

<svg
   version="1.1"
   id="M811"
   width="1600"
   height="1000"
   viewBox="0 0 1600 1000"
   inkscape:version="1.4.4 (dcaf3e7d9e, 2026-05-05)"
   xmlns:inkscape="http://www.inkscape.org/namespaces/inkscape"
   xmlns:sodipodi="http://sodipodi.sourceforge.net/DTD/sodipodi-0.dtd"
   xmlns:xlink="http://www.w3.org/1999/xlink"
   xmlns="http://www.w3.org/2000/svg"
   xmlns:svg="http://www.w3.org/2000/svg">
   <image
      width="1600"
      height="1600"
      preserveAspectRatio="none"
      xlink:href="https://redragonshop.com/cdn/shop/products/MMOGamingMouse_2.png"
      id="pixmap"
      inkscape:svg-dpi="96"
      x="0"
      y="-300"
      style="stroke-width:1.0015748;stroke-dasharray:none" />
   <path
      style="fill:none;stroke:#e50000;stroke-width:1px;stroke-linecap:butt;stroke-linejoin:miter;stroke-opacity:1"
      d="m 260.56736,780.41499 c -0.40333,-7.818 -0.41705,-13.3986 -0.62179,-20.1676 120.6965,-159.12167 367.90168,-399.54491 451.84618,-466.45857 83.9445,-66.91367 110.57058,-96.08732 206.85413,-154.04909 48.22655,-7.6883 27.15399,-5.4206 75.61836,-12.41356 43.31696,17.52297 71.58946,28.93769 126.13316,53.07659 -94.0118,61.05257 -217.58049,157.59202 -259.41536,197.03493 -69.20734,57.85797 -285.27306,271.89171 -419.25155,427.2608 -3.72719,9.0882 -2.87843,6.9411 -7.70447,16.467 -2.46741,0.091 -4.94904,1.1923 -10.49512,2.9967 -39.78838,2.9757 -112.4117,-21.2598 -162.96354,-43.7472 z"
      id="button1"
      sodipodi:nodetypes="cczcccccccc" />
   <path
      id="button2"
      style="fill:none;stroke:#e40000;stroke-width:1.00157;stroke-linecap:butt;stroke-linejoin:miter;stroke-dasharray:none;stroke-opacity:1"
      d="m 827.89137,56.809634 c 7.91216,-1.00276 44.36133,6.81279 49.07188,15.62841 -4.54803,6.9813 -84.42603,54.154146 -157.5743,100.575516 -86.26908,58.78593 -239.41925,191.68684 -267.65526,218.19237 -79.35938,37.27124 -105.41601,67.31282 -137.76038,138.19655 -59.24481,61.84864 -127.39995,144.20408 -146.81697,168.6492 -0.31772,11.19845 -0.7181,12.29285 0.11608,30.15445 -11.87759,-9.7938 -58.06428,-39.14692 -75.172322,-62.00562 C 87.093937,658.93805 85.18966,655.84872 80.178174,647.34976 77.515981,627.48974 76.870473,623.91035 75.055679,600.24509 101.71943,563.41473 201.1676,449.20499 231.18041,420.73506 302.03455,353.52332 369.7353,294.19732 444.97137,237.63827 513.43177,186.17285 568.06731,146.63222 653.45211,107.14931 700.69402,85.304104 785.23226,62.216084 827.89137,56.809634 Z"
      sodipodi:nodetypes="scscccccccssss" />
   <path
      style="fill:none;stroke:#00cb45;stroke-width:1px;stroke-linecap:butt;stroke-linejoin:miter;stroke-opacity:1"
      d="m 425.92001,404.556 c 38.05986,-20.61784 61.75166,-19.26453 97.34695,-13.85477 15.99707,16.22585 19.09822,20.64271 28.42422,30.55623 -9.19198,9.39031 -15.4637,15.4797 -27.57515,25.55231 -31.40523,7.11846 -50.00307,13.5926 -83.28332,46.11859 -33.28024,32.52598 -51.17602,62.31694 -62.71649,101.0809 -14.29928,18.01219 -17.65698,21.88507 -30.53219,35.28067 -11.30348,-7.27309 -26.51338,-15.89045 -44.4309,-29.03136 -3.72238,-40.58947 18.91914,-90.85915 37.92255,-120.9484 19.00341,-30.08925 46.78448,-54.13632 84.84433,-74.75417 z"
      id="button3"
      sodipodi:nodetypes="zccczccczz" />
   <path
      style="fill:none;stroke:#30ff73;stroke-width:1px;stroke-linecap:butt;stroke-linejoin:miter;stroke-opacity:1"
      d="m 999.71355,385.52281 c 16.99185,-15.13489 33.57225,-23.48929 44.37705,-41.70037 4.8388,-8.15573 2.8519,-16.4137 17.9099,-29.85901 16.366,-14.61326 41.288,-35.80671 57.6606,-50.33101 16.1931,-14.36499 35.0977,-27.02892 54.1638,-37.17815 8.6395,-4.59897 34.0587,-7.52778 40.1111,-4.08572 28.6777,16.30933 9.687,99.29192 -3.5121,111.88504 -13.4141,12.7982 -110.1602,89.69191 -159.1083,121.48328 -17.0027,-23.50906 -32.5345,-48.26875 -51.60205,-70.21406 z"
      id="button4"
      sodipodi:nodetypes="csssssscc" />
   <path
      style="fill:none;stroke:#ff0505;stroke-width:1px;stroke-linecap:butt;stroke-linejoin:miter;stroke-opacity:1"
      d="m 854.1723,474.68543 c 39.48086,-29.85892 46.01174,-37.48578 67.27311,-54.33956 47.36423,0.15236 40.43759,-11.59229 73.01282,-31.20187 20.22587,21.54446 36.16277,43.97155 49.14927,70.37621 -28.1877,30.90363 -106.15198,89.7166 -154.84958,124.54118 -9.82838,7.02846 -30.68958,2.66185 -51.90713,1.27388 -12.92987,-1.31281 -40.67159,-6.76191 -56.36253,-11.74006 11.9612,-43.05 34.20318,-69.05085 73.68404,-98.90978 z"
      id="button5"
      sodipodi:nodetypes="zcccsccz" />
   <path
      style="fill:none;stroke:#00ff0c;stroke-width:1px;stroke-linecap:butt;stroke-linejoin:miter;stroke-opacity:1"
      d="m 666.70379,231.51448 c 2.24888,0.0695 40.82795,22.49114 41.64811,24.05345 1.25648,1.94335 4.48636,15.9258 -4.00892,22.93986 -24.78248,22.1875 -50.77327,39.01291 -78.95322,68.70825 -7.80682,7.33251 -13.54243,7.37017 -17.81738,5.902 -9.30256,-4.50785 -28.54125,-15.36217 -28.84187,-17.92873 -0.88001,-15.75452 -1.22431,-24.79367 1.00224,-27.28285 27.44889,-26.73261 84.47168,-76.36045 86.97104,-76.39198 z"
      id="button6"
      sodipodi:nodetypes="cccccccc" />
   <path
      style="fill:none;stroke:#04ff00;stroke-width:1px;stroke-linecap:butt;stroke-linejoin:miter;stroke-opacity:1"
      d="m 829.51562,181.51256 c 0.18711,-8.64254 0.44221,-16.88585 -1.61458,-18.0783 -8.28288,-4.6798 -36.74301,-22.93061 -39.70504,-21.118 -2.77681,1.78368 -71.32652,48.32514 -87.91924,63.7577 -6.55147,6.57813 -4.56597,27.06583 -3.2485,28.40899 13.4558,7.23596 27.47074,18.92747 36.10447,16.81187 27.3688,-12.08794 96.14623,-68.12993 96.38289,-69.78226 z"
      id="button7"
      sodipodi:nodetypes="ccccccc" />
   <path
      d="m 741.42254,914.84874 32.30708,-35.43545 32.30708,35.43545 h -17.36188 v 72.266 h -29.89041 v -72.266 z"
      id="button8"
      style="font-size:1920px;line-height:1.25;font-family:Baloo;-inkscape-font-specification:Baloo;text-align:center;letter-spacing:0px;word-spacing:0px;text-anchor:middle;stroke-width:1.0015748;fill:none;stroke:#ff0700;stroke-opacity:1;stroke-dasharray:none"
      aria-label="⇧"
      sodipodi:nodetypes="cccccccc" />
   <path
      style="fill:none;stroke:#ac0000;stroke-width:1px;stroke-linecap:butt;stroke-linejoin:miter;stroke-opacity:1"
      d="m 987.04611,682.79674 c 8.03625,9.41003 11.71708,10.18562 18.59499,20.83765 3.1307,12.39372 14.8127,49.12786 19.9641,60.70534 -3.6626,6.91274 -23.7826,37.2673 -39.94325,46.92675 -6.1007,3.13661 -12.88542,5.59598 -24.28197,1.95618 -7.17681,-2.81816 -25.23974,-13.4915 -27.63448,-14.96118 -1.70869,-1.96822 -5.11659,-6.44473 -8.47248,-9.84489 -2.82794,-6.55094 -13.02056,-24.63398 -16.00889,-41.5216 2.70765,-11.87194 3.04202,-11.79199 7.77748,-16.56534 12.25587,1.05175 12.51139,2.0114 25.89894,-5.30479 7.08774,-3.82296 41.52609,-40.8092 44.10556,-42.22812 z"
      id="button9"
      sodipodi:nodetypes="ccccccccccc" />
   <path
      style="fill:none;stroke:#10ff00;stroke-width:1px;stroke-linecap:butt;stroke-linejoin:miter;stroke-opacity:1"
      d="m 881.51448,642.2049 c 9.67805,-13.29001 23.96342,-27.06558 33.92236,-34.19321 9.46683,-5.89473 34.5171,-22.24246 37.68121,-22.04287 1.59383,0.70141 16.67073,19.20182 17.48329,21.38085 5.29372,16.12271 13.73629,42.20814 22.60579,62.9176 -8.62823,10.47583 -40.89414,45.16828 -51.55902,53.56347 -9.51728,6.05143 -10.49137,6.13571 -22.82851,5.1225 -4.51274,-0.66422 -28.03207,-18.75725 -30.40089,-25.38976 -5.8224,-16.28924 -14.35519,-26.6989 -13.05484,-41.19341 2.07562,-7.39217 3.45411,-16.96173 6.15061,-20.16517 z"
      id="button10"
      sodipodi:nodetypes="cccccccccc" />
   <path
      style="fill:none;stroke:#10ff00;stroke-width:1px;stroke-linecap:butt;stroke-linejoin:miter;stroke-opacity:1"
      d="m 1010.0223,667.26058 c 8.3139,-14.70199 28.4975,-25.95229 36.1296,-29.04316 7.3585,-2.14641 28.4417,-10.10416 40.3668,-20.57448 0.3787,-0.43184 0.9146,-1.89693 1.1693,-2.99095 0.9501,-0.72457 1.4723,-1.23136 2.3475,-1.74518 1.4622,-0.85846 9.6422,2.89576 17.809,16.07073 2.8046,5.76667 14.9426,44.81273 16.8771,63.45008 1.0495,5.1225 -7.3073,10.76461 -10.4855,19.2301 -3.107,6.88433 -68.6864,34.18833 -73.4341,32.97797 -4.4442,-2.56172 -32.6605,-52.73743 -30.7797,-77.37511 z"
      id="button11"
      sodipodi:nodetypes="ccccsccccc" />
   <path
      style="fill:none;stroke:#ff0000;stroke-width:1px;stroke-linecap:butt;stroke-linejoin:miter;stroke-opacity:1"
      d="m 1055.0402,508.09107 c 5.4163,4.76384 10.109,9.81763 18.2337,20.63944 8.3388,18.48251 20.8501,51.55736 20.9355,67.4833 -0.3227,2.85198 -8.1329,20.94614 -8.911,21.22337 -12.4048,7.74708 -26.5289,14.89745 -40.4462,19.82837 -13.466,6.49368 -42.6914,18.23205 -46.52257,8.28011 -6.37239,-15.0557 -15.43766,-37.45346 -20.04455,-53.11804 -3.115,-10.59182 -6.34819,-20.47218 -5.12249,-22.27172 3.74155,-3.22045 41.25391,-33.55143 46.10241,-37.0824 16.1794,-11.78259 34.284,-25.81199 35.7752,-24.98243 z"
      id="button12"
      sodipodi:nodetypes="ccccccscsc" />
   <path
      style="fill:none;stroke:#ff0000;stroke-width:1px;stroke-linecap:butt;stroke-linejoin:miter;stroke-opacity:1"
      d="m 1126.0579,581.06904 c -0.1028,-7.7454 12.7369,-15.97834 16.1857,-16.05801 15.1907,-0.35093 36.807,-17.62777 39.1181,-29.02542 0.8332,-4.10898 13.8244,-21.11423 17.5916,-19.81555 7.3592,2.53694 14.3042,12.3559 20.2004,30.82326 4.0037,12.53968 7.2451,28.8583 11.804,42.76169 2.6797,8.17223 -18.7843,43.69451 -38.5301,57.01559 -11.6626,7.86794 -27.9589,14.50134 -37.4053,8.22934 -5.8972,-3.9155 -28.6575,-50.81839 -28.9644,-73.9309 z"
      id="button13"
      sodipodi:nodetypes="sssssssss" />
   <path
      style="fill:none;stroke:#10ff00;stroke-width:1px;stroke-linecap:butt;stroke-linejoin:miter;stroke-opacity:1"
      d="m 1170.7127,420.82405 c 7.9516,0.2399 24.6452,54.53977 31.9599,79.39867 0.7958,2.46953 -19.9721,25.845 -23.2739,35.41203 -1.4758,4.27626 -9.7648,19.51572 -29.2873,25.83519 -11.8693,3.8421 -21.9133,-1.37043 -30.9577,-6.4588 -12.8817,-7.24722 -15.0662,-26.09045 -20.2673,-39.64365 -4.9424,-12.87895 -12.0166,-28.18679 -2.1158,-36.97105 22.2077,-18.45594 68.9619,-57.72264 73.9421,-57.57239 z"
      id="button14"
      sodipodi:nodetypes="ssssssss" />
   <path
      style="fill:none;stroke:#10ff00;stroke-width:1px;stroke-linecap:butt;stroke-linejoin:miter;stroke-opacity:1"
      d="m 1295.6013,444.48775 c 11.0697,5.78304 17.1721,20.75043 20.5312,33.5667 5.0306,19.19383 8.3984,42.73223 -5.2194,59.58475 -15.518,19.20409 -63.5843,42.99674 -66.2998,34.87706 -5.567,-16.64558 -26.263,-66.2618 -24.7355,-73.84544 1.6229,-8.05699 12.1404,-17.57916 19.6165,-21.26038 12.9617,-6.38233 53.9751,-34.03644 56.107,-32.92269 z"
      id="button15"
      sodipodi:nodetypes="sssssss" />
   <path
      style="fill:none;stroke:#ff0000;stroke-width:1px;stroke-linecap:butt;stroke-linejoin:miter;stroke-opacity:1"
      d="m 1192.67,404.0815 c 0.8607,-5.07561 59.8517,-52.81367 70.3832,-52.42232 13.0172,0.48372 24.4219,18.42262 28.7063,30.52345 3.1386,8.86468 7.5031,18.38881 9.1472,28.46958 2.1923,13.44077 7.4728,24.29847 -10.2608,34.57057 -13.5824,7.86758 -27.1298,15.82601 -40.7573,24.48769 -7.017,4.46002 -24.1585,15.16561 -34.5211,9.1314 -2.3378,-1.36132 -24.2445,-65.6371 -22.6975,-74.76037 z"
      id="button16"
      sodipodi:nodetypes="ssssssss" />
</svg>
